# xmcd
# 
# Track frame offsets:
#     150
#     20587
#     37186
#     79166
#     92756
#     109094
#     126912
#     145904
#     163942
#     177117
#     193347
#     207215
#     224075
#     238208
#     257106
#     271333
#     287772
#     302145
#     320451
#     339039
# 
# Disc length: 4794
# 
# Revision: 0
# Processed by: cddbd v1.5.2PL0 Copyright (c) Steve Scherf et al.
# Submitted via: BonkEnc v1.0.6
# 
DISCID=3712b814
DTITLE=Casey Donahew Band - Live
DYEAR=2008
DGENRE=Country
TTITLE0=One
TTITLE1=Two
TTITLE2=Three
TTITLE3=Four
TTITLE4=Five
TTITLE5=Six
TTITLE6=Seven
TTITLE7=Eight
TTITLE8=Nine
TTITLE9=Ten
TTITLE10=Eleven
TTITLE11=Twelve
TTITLE12=Thirteen
TTITLE13=Fourteen
TTITLE14=Fifteen
TTITLE15=Sixteen
TTITLE16=Seventeen
TTITLE17=Eighteen
TTITLE18=Ninteen
TTITLE19=Twenty
EXTD=
EXTT0=
EXTT1=
EXTT2=
EXTT3=
EXTT4=
EXTT5=
EXTT6=
EXTT7=
EXTT8=
EXTT9=
EXTT10=
EXTT11=
EXTT12=
EXTT13=
EXTT14=
EXTT15=
EXTT16=
EXTT17=
EXTT18=
EXTT19=
PLAYORDER=
